<?xml version="1.0" encoding="UTF-8" standalone="no"?>
<svg
   height="24"
   viewBox="0 -960 960 960"
   width="24"
   version="1.1"
   id="svg4"
   sodipodi:docname="history_weight400.svg"
   inkscape:version="1.2.2 (732a01da63, 2022-12-09)"
   xmlns:inkscape="http://www.inkscape.org/namespaces/inkscape"
   xmlns:sodipodi="http://sodipodi.sourceforge.net/DTD/sodipodi-0.dtd"
   xmlns="http://www.w3.org/2000/svg"
   xmlns:svg="http://www.w3.org/2000/svg">
  <defs
     id="defs8" />
  <sodipodi:namedview
     id="namedview6"
     pagecolor="#505050"
     bordercolor="#eeeeee"
     borderopacity="1"
     inkscape:showpageshadow="0"
     inkscape:pageopacity="0"
     inkscape:pagecheckerboard="0"
     inkscape:deskcolor="#505050"
     showgrid="false"
     inkscape:zoom="45.254834"
     inkscape:cx="9.1260969"
     inkscape:cy="11.556776"
     inkscape:window-width="2560"
     inkscape:window-height="1369"
     inkscape:window-x="1912"
     inkscape:window-y="-8"
     inkscape:window-maximized="1"
     inkscape:current-layer="svg4" />
  <path
     d="M480-120q-138 0-240.5-91.5T122-440h82q14 104 92.5 172T480-200q117 0 198.5-81.5T760-480q0-117-81.5-198.5T480-760q-69 0-129 32t-101 88h110v80H120v-240h80v94q51-64 124.5-99T480-840q75 0 140.5 28.5t114 77q48.5 48.5 77 114T840-480q0 75-28.5 140.5t-77 114q-48.5 48.5-114 77T480-120Zm112-192L440-464v-216h80v184l128 128-56 56Z"
     id="path2"
     style="fill:#ffffff" />
  <path
     style="fill:#ffffff;stroke-width:0.0239521"
     d="M 11.173653,20.956794 C 9.367492,20.792953 7.7795662,20.151314 6.3678743,19.014906 4.6915392,17.665461 3.6156431,15.921143 3.1996543,13.878365 c -0.050434,-0.247667 -0.133786,-0.776767 -0.133786,-0.849248 0,-0.01451 0.3777121,-0.02313 1.0130871,-0.02313 h 1.0130872 l 0.027549,0.189014 c 0.075145,0.515568 0.2980192,1.280677 0.510093,1.751106 0.6461029,1.433208 1.8184898,2.637082 3.2752531,3.363219 1.3396643,0.667768 2.9685713,0.868588 4.5561403,0.561705 1.645793,-0.318139 3.128413,-1.270045 4.20458,-2.699525 0.970803,-1.289524 1.438073,-2.907565 1.330916,-4.608633 C 18.94323,10.71606 18.808434,10.080431 18.533456,9.3790376 17.932086,7.8451157 16.676345,6.4751619 15.173653,5.7136537 13.720986,4.9774962 11.885161,4.7883753 10.263473,5.2078223 9.0495696,5.5217966 7.9189746,6.1808719 6.994012,7.1137399 6.7179051,7.3922067 6.2812889,7.9025499 6.2554891,7.9769701 6.2504405,7.9915329 6.7501875,8 7.6147705,8 H 8.9820359 V 8.994012 9.988024 H 6 3.0179641 V 6.994012 4 H 4 4.9820359 v 1.1736527 c 0,0.645509 0.00808,1.1736156 0.017964,1.1735705 0.00988,-4.79e-5 0.1131539,-0.112457 0.229497,-0.2498038 1.2828496,-1.5144457 3.2040108,-2.6058073 5.1896651,-2.9481133 0.730631,-0.1259532 1.717886,-0.1662468 2.419161,-0.098735 2.105779,0.2027229 4.011453,1.1022582 5.510151,2.6009556 1.319466,1.3194668 2.214294,3.0368043 2.512191,4.8213553 0.08164,0.489055 0.0981,0.675964 0.113371,1.287616 0.03656,1.463894 -0.205031,2.667252 -0.793436,3.952077 -0.706603,1.542916 -1.841961,2.868525 -3.247163,3.791285 -1.191676,0.782542 -2.474048,1.252731 -3.903497,1.431238 -0.272053,0.03397 -1.555568,0.04897 -1.856287,0.0217 z"
     id="path237"
     transform="matrix(40,0,0,40,0,-960)" />
  <path
     style="fill:#ffffff;stroke-width:0.0239521"
     d="M 12.904135,14.281381 11.017964,12.395097 V 9.7065303 7.0179641 H 12 12.982036 v 2.2933466 2.2933463 l 1.59869,1.598824 1.59869,1.598824 -0.682365,0.68268 c -0.3753,0.375474 -0.68785,0.68268 -0.694555,0.68268 -0.0067,0 -0.860967,-0.848828 -1.898361,-1.886284 z"
     id="path239"
     transform="matrix(40,0,0,40,0,-960)" />
  <path
     style="fill:#ffffff;stroke-width:0.0239521"
     d="m 11.125749,20.941648 c -0.03952,-0.0051 -0.198058,-0.02509 -0.352303,-0.04444 C 8.8489808,20.655819 7.0653444,19.761918 5.6157849,18.312359 4.7460215,17.442595 4.1364856,16.53629 3.688783,15.447143 3.4124888,14.774988 3.1649315,13.827637 3.1000206,13.194069 l -0.016014,-0.156308 0.5816359,-0.01589 c 0.6120801,-0.01672 1.4122021,-0.02131 1.4122021,-0.0081 0,0.06342 0.1170405,0.629621 0.1791085,0.866465 0.2043389,0.779731 0.4728161,1.389369 0.8863722,2.012707 0.8878467,1.338219 2.2746688,2.377992 3.7658463,2.823452 0.7280904,0.217502 1.2264114,0.28706 2.0668764,0.288501 0.671181,0.0011 0.914653,-0.01903 1.456682,-0.120727 1.047461,-0.196532 2.083183,-0.675732 2.950504,-1.365117 0.259169,-0.205999 0.922911,-0.870193 1.135051,-1.135822 0.793923,-0.994106 1.265697,-2.119642 1.45575,-3.473054 0.04898,-0.34879 0.04098,-1.485019 -0.01323,-1.88024 C 18.842459,10.167209 18.643717,9.5175863 18.277428,8.7962 17.936423,8.1246115 17.542598,7.5947981 16.937317,6.9933483 15.795623,5.8588802 14.513685,5.2364742 12.886228,5.0264654 12.503616,4.9770929 11.44228,4.9839302 11.077844,5.0381154 9.4312596,5.2829338 8.0471713,6.0001854 6.8936213,7.2064307 6.5912232,7.5226424 6.251497,7.9279073 6.251497,7.9724307 6.251497,7.9928994 6.6031332,8 7.6167665,8 H 8.9820359 V 8.994012 9.988024 H 6 3.0179641 V 6.994012 4 H 4 4.9820359 v 1.1736527 c 0,0.6927564 0.00897,1.1736527 0.02189,1.1736527 0.01204,0 0.123916,-0.1158683 0.2486145,-0.257485 C 5.5599243,5.7407325 6.0636455,5.2539772 6.3832335,4.9972104 6.7191202,4.7273488 7.3009071,4.3412438 7.7005988,4.1229362 8.676304,3.590016 9.677406,3.2593181 10.762953,3.1113368 c 0.464559,-0.063329 1.615083,-0.089412 2.069584,-0.04692 2.51653,0.2352772 4.810327,1.5232997 6.336926,3.5583372 1.003216,1.3373394 1.630453,2.938817 1.763651,4.502995 0.05777,0.678405 0.01928,1.784661 -0.08353,2.400522 -0.251077,1.504091 -0.97194,3.032065 -2.020201,4.282111 -0.239808,0.28597 -0.771207,0.814273 -1.068905,1.062677 -0.879756,0.734086 -1.925503,1.313899 -3.007561,1.66754 -0.638857,0.208793 -1.360156,0.35716 -1.926571,0.396285 -0.300226,0.02074 -1.553452,0.02572 -1.700598,0.0068 z"
     id="path241"
     transform="matrix(40,0,0,40,0,-960)" />
  <path
     style="fill:#ffffff;stroke-width:0.0239521"
     d="m 4.5108396,9.9940146 c 0.8276684,-0.00349 2.1749738,-0.00349 2.9940119,1.4e-6 C 8.3238898,9.997506 7.6467066,10.000366 6,10.000366 4.3532934,10.000365 3.6831713,9.997506 4.5108396,9.994016 Z"
     id="path243"
     transform="matrix(40,0,0,40,0,-960)" />
</svg>
